<svg width="136" height="38" viewBox="0 0 136 38" fill="none" xmlns="http://www.w3.org/2000/svg">
<path d="M53.1719 10.2812L46.375 30H42.2656L50.8281 7.25H53.4531L53.1719 10.2812ZM58.8594 30L52.0469 10.2812L51.75 7.25H54.3906L62.9844 30H58.8594ZM58.5312 21.5625V24.6719H46.1562V21.5625H58.5312ZM75.4688 26.5V6H79.25V30H75.8281L75.4688 26.5ZM64.4688 21.7344V21.4062C64.4688 20.125 64.6198 18.9583 64.9219 17.9062C65.224 16.8438 65.6615 15.9323 66.2344 15.1719C66.8073 14.401 67.5052 13.8125 68.3281 13.4062C69.151 12.9896 70.0781 12.7812 71.1094 12.7812C72.1302 12.7812 73.026 12.9792 73.7969 13.375C74.5677 13.7708 75.224 14.3385 75.7656 15.0781C76.3073 15.8073 76.7396 16.6823 77.0625 17.7031C77.3854 18.7135 77.6146 19.8385 77.75 21.0781V22.125C77.6146 23.3333 77.3854 24.4375 77.0625 25.4375C76.7396 26.4375 76.3073 27.3021 75.7656 28.0312C75.224 28.7604 74.5625 29.3229 73.7812 29.7188C73.0104 30.1146 72.1094 30.3125 71.0781 30.3125C70.0573 30.3125 69.1354 30.099 68.3125 29.6719C67.5 29.2448 66.8073 28.6458 66.2344 27.875C65.6615 27.1042 65.224 26.1979 64.9219 25.1562C64.6198 24.1042 64.4688 22.9635 64.4688 21.7344ZM68.2344 21.4062V21.7344C68.2344 22.5052 68.3021 23.224 68.4375 23.8906C68.5833 24.5573 68.8073 25.1458 69.1094 25.6562C69.4115 26.1562 69.8021 26.5521 70.2812 26.8438C70.7708 27.125 71.3542 27.2656 72.0312 27.2656C72.8854 27.2656 73.5885 27.0781 74.1406 26.7031C74.6927 26.3281 75.125 25.8229 75.4375 25.1875C75.7604 24.5417 75.9792 23.8229 76.0938 23.0312V20.2031C76.0312 19.5885 75.901 19.0156 75.7031 18.4844C75.5156 17.9531 75.2604 17.4896 74.9375 17.0938C74.6146 16.6875 74.2135 16.375 73.7344 16.1562C73.2656 15.9271 72.7083 15.8125 72.0625 15.8125C71.375 15.8125 70.7917 15.9583 70.3125 16.25C69.8333 16.5417 69.4375 16.9427 69.125 17.4531C68.8229 17.9635 68.599 18.5573 68.4531 19.2344C68.3073 19.9115 68.2344 20.6354 68.2344 21.4062ZM86.9531 16.5312V30H83.1875V13.0938H86.7344L86.9531 16.5312ZM86.3438 20.9219L85.0625 20.9062C85.0625 19.7396 85.2083 18.6615 85.5 17.6719C85.7917 16.6823 86.2188 15.8229 86.7812 15.0938C87.3438 14.3542 88.0417 13.7865 88.875 13.3906C89.7188 12.9844 90.6927 12.7812 91.7969 12.7812C92.5677 12.7812 93.2708 12.8958 93.9062 13.125C94.5521 13.3438 95.1094 13.6927 95.5781 14.1719C96.0573 14.651 96.4219 15.2656 96.6719 16.0156C96.9323 16.7656 97.0625 17.6719 97.0625 18.7344V30H93.2969V19.0625C93.2969 18.2396 93.1719 17.5938 92.9219 17.125C92.6823 16.6562 92.3333 16.3229 91.875 16.125C91.4271 15.9167 90.8906 15.8125 90.2656 15.8125C89.5573 15.8125 88.9531 15.9479 88.4531 16.2188C87.9635 16.4896 87.5625 16.8594 87.25 17.3281C86.9375 17.7969 86.7083 18.3385 86.5625 18.9531C86.4167 19.5677 86.3438 20.224 86.3438 20.9219ZM96.8281 19.9219L95.0625 20.3125C95.0625 19.2917 95.2031 18.3281 95.4844 17.4219C95.776 16.5052 96.1979 15.7031 96.75 15.0156C97.3125 14.3177 98.0052 13.7708 98.8281 13.375C99.651 12.9792 100.594 12.7812 101.656 12.7812C102.521 12.7812 103.292 12.901 103.969 13.1406C104.656 13.3698 105.24 13.7344 105.719 14.2344C106.198 14.7344 106.562 15.3854 106.812 16.1875C107.062 16.9792 107.188 17.9375 107.188 19.0625V30H103.406V19.0469C103.406 18.1927 103.281 17.5312 103.031 17.0625C102.792 16.5938 102.448 16.2708 102 16.0938C101.552 15.9062 101.016 15.8125 100.391 15.8125C99.8073 15.8125 99.2917 15.9219 98.8438 16.1406C98.4062 16.349 98.0365 16.6458 97.7344 17.0312C97.4323 17.4062 97.2031 17.8385 97.0469 18.3281C96.901 18.8177 96.8281 19.349 96.8281 19.9219ZM115.094 13.0938V30H111.312V13.0938H115.094ZM111.062 8.65625C111.062 8.08333 111.25 7.60938 111.625 7.23438C112.01 6.84896 112.542 6.65625 113.219 6.65625C113.885 6.65625 114.411 6.84896 114.797 7.23438C115.182 7.60938 115.375 8.08333 115.375 8.65625C115.375 9.21875 115.182 9.6875 114.797 10.0625C114.411 10.4375 113.885 10.625 113.219 10.625C112.542 10.625 112.01 10.4375 111.625 10.0625C111.25 9.6875 111.062 9.21875 111.062 8.65625ZM122.953 16.7031V30H119.188V13.0938H122.734L122.953 16.7031ZM122.281 20.9219L121.062 20.9062C121.073 19.7083 121.24 18.6094 121.562 17.6094C121.896 16.6094 122.354 15.75 122.938 15.0312C123.531 14.3125 124.24 13.7604 125.062 13.375C125.885 12.9792 126.802 12.7812 127.812 12.7812C128.625 12.7812 129.359 12.8958 130.016 13.125C130.682 13.3438 131.25 13.7031 131.719 14.2031C132.198 14.7031 132.562 15.3542 132.812 16.1562C133.062 16.9479 133.188 17.9219 133.188 19.0781V30H129.406V19.0625C129.406 18.25 129.286 17.6094 129.047 17.1406C128.818 16.6615 128.479 16.3229 128.031 16.125C127.594 15.9167 127.047 15.8125 126.391 15.8125C125.745 15.8125 125.167 15.9479 124.656 16.2188C124.146 16.4896 123.714 16.8594 123.359 17.3281C123.016 17.7969 122.75 18.3385 122.562 18.9531C122.375 19.5677 122.281 20.224 122.281 20.9219Z" fill="#000022"/>
<path d="M4 3C2.93913 3 1.92172 3.42143 1.17157 4.17157C0.421427 4.92172 0 5.93913 0 7L0 23C0 24.0609 0.421427 25.0783 1.17157 25.8284C1.92172 26.5786 2.93913 27 4 27H9C9.31049 27 9.61672 27.0723 9.89443 27.2111C10.1721 27.35 10.4137 27.5516 10.6 27.8L14.4 32.866C14.5863 33.1144 14.8279 33.316 15.1056 33.4549C15.3833 33.5937 15.6895 33.666 16 33.666C16.3105 33.666 16.6167 33.5937 16.8944 33.4549C17.1721 33.316 17.4137 33.1144 17.6 32.866L21.4 27.8C21.5863 27.5516 21.8279 27.35 22.1056 27.2111C22.3833 27.0723 22.6895 27 23 27H28C29.0609 27 30.0783 26.5786 30.8284 25.8284C31.5786 25.0783 32 24.0609 32 23V7C32 5.93913 31.5786 4.92172 30.8284 4.17157C30.0783 3.42143 29.0609 3 28 3H4Z" fill="#1F64FF"/>
</svg>
