<svg width="176" height="38" viewBox="0 0 176 38" fill="none" xmlns="http://www.w3.org/2000/svg">
<path d="M45.9062 7.25H49.4062L55.9844 24.7969L62.5469 7.25H66.0469L57.3594 30H54.5781L45.9062 7.25ZM44.3125 7.25H47.6406L48.2188 22.4375V30H44.3125V7.25ZM64.3125 7.25H67.6562V30H63.7344V22.4375L64.3125 7.25ZM79.3906 30.3125C78.1406 30.3125 77.0104 30.1094 76 29.7031C75 29.2865 74.1458 28.7083 73.4375 27.9688C72.7396 27.2292 72.2031 26.3594 71.8281 25.3594C71.4531 24.3594 71.2656 23.2812 71.2656 22.125V21.5C71.2656 20.1771 71.4583 18.9792 71.8438 17.9062C72.2292 16.8333 72.7656 15.9167 73.4531 15.1562C74.1406 14.3854 74.9531 13.7969 75.8906 13.3906C76.8281 12.9844 77.8438 12.7812 78.9375 12.7812C80.1458 12.7812 81.2031 12.9844 82.1094 13.3906C83.0156 13.7969 83.7656 14.3698 84.3594 15.1094C84.9635 15.8385 85.4115 16.7083 85.7031 17.7188C86.0052 18.7292 86.1562 19.8438 86.1562 21.0625V22.6719H73.0938V19.9688H82.4375V19.6719C82.4167 18.9948 82.2812 18.3594 82.0312 17.7656C81.7917 17.1719 81.4219 16.6927 80.9219 16.3281C80.4219 15.9635 79.7552 15.7812 78.9219 15.7812C78.2969 15.7812 77.7396 15.9167 77.25 16.1875C76.7708 16.4479 76.3698 16.8281 76.0469 17.3281C75.724 17.8281 75.474 18.4323 75.2969 19.1406C75.1302 19.8385 75.0469 20.625 75.0469 21.5V22.125C75.0469 22.8646 75.1458 23.5521 75.3438 24.1875C75.5521 24.8125 75.8542 25.3594 76.25 25.8281C76.6458 26.2969 77.125 26.6667 77.6875 26.9375C78.25 27.1979 78.8906 27.3281 79.6094 27.3281C80.5156 27.3281 81.3229 27.1458 82.0312 26.7812C82.7396 26.4167 83.3542 25.901 83.875 25.2344L85.8594 27.1562C85.4948 27.6875 85.0208 28.1979 84.4375 28.6875C83.8542 29.1667 83.1406 29.5573 82.2969 29.8594C81.4635 30.1615 80.4948 30.3125 79.3906 30.3125ZM96.5469 30.3125C95.2969 30.3125 94.1667 30.1094 93.1562 29.7031C92.1562 29.2865 91.3021 28.7083 90.5938 27.9688C89.8958 27.2292 89.3594 26.3594 88.9844 25.3594C88.6094 24.3594 88.4219 23.2812 88.4219 22.125V21.5C88.4219 20.1771 88.6146 18.9792 89 17.9062C89.3854 16.8333 89.9219 15.9167 90.6094 15.1562C91.2969 14.3854 92.1094 13.7969 93.0469 13.3906C93.9844 12.9844 95 12.7812 96.0938 12.7812C97.3021 12.7812 98.3594 12.9844 99.2656 13.3906C100.172 13.7969 100.922 14.3698 101.516 15.1094C102.12 15.8385 102.568 16.7083 102.859 17.7188C103.161 18.7292 103.312 19.8438 103.312 21.0625V22.6719H90.25V19.9688H99.5938V19.6719C99.5729 18.9948 99.4375 18.3594 99.1875 17.7656C98.9479 17.1719 98.5781 16.6927 98.0781 16.3281C97.5781 15.9635 96.9115 15.7812 96.0781 15.7812C95.4531 15.7812 94.8958 15.9167 94.4062 16.1875C93.9271 16.4479 93.526 16.8281 93.2031 17.3281C92.8802 17.8281 92.6302 18.4323 92.4531 19.1406C92.2865 19.8385 92.2031 20.625 92.2031 21.5V22.125C92.2031 22.8646 92.3021 23.5521 92.5 24.1875C92.7083 24.8125 93.0104 25.3594 93.4062 25.8281C93.8021 26.2969 94.2812 26.6667 94.8438 26.9375C95.4062 27.1979 96.0469 27.3281 96.7656 27.3281C97.6719 27.3281 98.4792 27.1458 99.1875 26.7812C99.8958 26.4167 100.51 25.901 101.031 25.2344L103.016 27.1562C102.651 27.6875 102.177 28.1979 101.594 28.6875C101.01 29.1667 100.297 29.5573 99.4531 29.8594C98.6198 30.1615 97.651 30.3125 96.5469 30.3125ZM114 13.0938V15.8438H104.469V13.0938H114ZM107.219 8.95312H110.984V25.3281C110.984 25.849 111.057 26.25 111.203 26.5312C111.359 26.8021 111.573 26.9844 111.844 27.0781C112.115 27.1719 112.432 27.2188 112.797 27.2188C113.057 27.2188 113.307 27.2031 113.547 27.1719C113.786 27.1406 113.979 27.1094 114.125 27.0781L114.141 29.9531C113.828 30.0469 113.464 30.1302 113.047 30.2031C112.641 30.276 112.172 30.3125 111.641 30.3125C110.776 30.3125 110.01 30.1615 109.344 29.8594C108.677 29.5469 108.156 29.0417 107.781 28.3438C107.406 27.6458 107.219 26.7188 107.219 25.5625V8.95312ZM120.938 13.0938V30H117.156V13.0938H120.938ZM116.906 8.65625C116.906 8.08333 117.094 7.60938 117.469 7.23438C117.854 6.84896 118.385 6.65625 119.062 6.65625C119.729 6.65625 120.255 6.84896 120.641 7.23438C121.026 7.60938 121.219 8.08333 121.219 8.65625C121.219 9.21875 121.026 9.6875 120.641 10.0625C120.255 10.4375 119.729 10.625 119.062 10.625C118.385 10.625 117.854 10.4375 117.469 10.0625C117.094 9.6875 116.906 9.21875 116.906 8.65625ZM128.797 16.7031V30H125.031V13.0938H128.578L128.797 16.7031ZM128.125 20.9219L126.906 20.9062C126.917 19.7083 127.083 18.6094 127.406 17.6094C127.74 16.6094 128.198 15.75 128.781 15.0312C129.375 14.3125 130.083 13.7604 130.906 13.375C131.729 12.9792 132.646 12.7812 133.656 12.7812C134.469 12.7812 135.203 12.8958 135.859 13.125C136.526 13.3438 137.094 13.7031 137.562 14.2031C138.042 14.7031 138.406 15.3542 138.656 16.1562C138.906 16.9479 139.031 17.9219 139.031 19.0781V30H135.25V19.0625C135.25 18.25 135.13 17.6094 134.891 17.1406C134.661 16.6615 134.323 16.3229 133.875 16.125C133.438 15.9167 132.891 15.8125 132.234 15.8125C131.589 15.8125 131.01 15.9479 130.5 16.2188C129.99 16.4896 129.557 16.8594 129.203 17.3281C128.859 17.7969 128.594 18.3385 128.406 18.9531C128.219 19.5677 128.125 20.224 128.125 20.9219ZM153.703 13.0938H157.125V29.5312C157.125 31.0521 156.802 32.3438 156.156 33.4062C155.51 34.4688 154.609 35.276 153.453 35.8281C152.297 36.3906 150.958 36.6719 149.438 36.6719C148.792 36.6719 148.073 36.5781 147.281 36.3906C146.5 36.2031 145.74 35.901 145 35.4844C144.271 35.0781 143.661 34.5417 143.172 33.875L144.938 31.6562C145.542 32.375 146.208 32.901 146.938 33.2344C147.667 33.5677 148.432 33.7344 149.234 33.7344C150.099 33.7344 150.833 33.5729 151.438 33.25C152.052 32.9375 152.526 32.474 152.859 31.8594C153.193 31.2448 153.359 30.4948 153.359 29.6094V16.9219L153.703 13.0938ZM142.219 21.7344V21.4062C142.219 20.125 142.375 18.9583 142.688 17.9062C143 16.8438 143.448 15.9323 144.031 15.1719C144.615 14.401 145.323 13.8125 146.156 13.4062C146.99 12.9896 147.932 12.7812 148.984 12.7812C150.078 12.7812 151.01 12.9792 151.781 13.375C152.562 13.7708 153.214 14.3385 153.734 15.0781C154.255 15.8073 154.661 16.6823 154.953 17.7031C155.255 18.7135 155.479 19.8385 155.625 21.0781V22.125C155.49 23.3333 155.26 24.4375 154.938 25.4375C154.615 26.4375 154.188 27.3021 153.656 28.0312C153.125 28.7604 152.469 29.3229 151.688 29.7188C150.917 30.1146 150.005 30.3125 148.953 30.3125C147.922 30.3125 146.99 30.099 146.156 29.6719C145.333 29.2448 144.625 28.6458 144.031 27.875C143.448 27.1042 143 26.1979 142.688 25.1562C142.375 24.1042 142.219 22.9635 142.219 21.7344ZM145.984 21.4062V21.7344C145.984 22.5052 146.057 23.224 146.203 23.8906C146.359 24.5573 146.594 25.1458 146.906 25.6562C147.229 26.1562 147.635 26.5521 148.125 26.8438C148.625 27.125 149.214 27.2656 149.891 27.2656C150.776 27.2656 151.5 27.0781 152.062 26.7031C152.635 26.3281 153.073 25.8229 153.375 25.1875C153.688 24.5417 153.906 23.8229 154.031 23.0312V20.2031C153.969 19.5885 153.839 19.0156 153.641 18.4844C153.453 17.9531 153.198 17.4896 152.875 17.0938C152.552 16.6875 152.146 16.375 151.656 16.1562C151.167 15.9271 150.589 15.8125 149.922 15.8125C149.245 15.8125 148.656 15.9583 148.156 16.25C147.656 16.5417 147.245 16.9427 146.922 17.4531C146.609 17.9635 146.375 18.5573 146.219 19.2344C146.062 19.9115 145.984 20.6354 145.984 21.4062ZM170.516 25.4219C170.516 25.0469 170.422 24.7083 170.234 24.4062C170.047 24.0938 169.688 23.8125 169.156 23.5625C168.635 23.3125 167.865 23.0833 166.844 22.875C165.948 22.6771 165.125 22.4427 164.375 22.1719C163.635 21.8906 163 21.5521 162.469 21.1562C161.938 20.7604 161.526 20.2917 161.234 19.75C160.943 19.2083 160.797 18.5833 160.797 17.875C160.797 17.1875 160.948 16.5365 161.25 15.9219C161.552 15.3073 161.984 14.7656 162.547 14.2969C163.109 13.8281 163.792 13.4583 164.594 13.1875C165.406 12.9167 166.312 12.7812 167.312 12.7812C168.729 12.7812 169.943 13.0208 170.953 13.5C171.974 13.9688 172.755 14.6094 173.297 15.4219C173.839 16.224 174.109 17.1302 174.109 18.1406H170.344C170.344 17.6927 170.229 17.276 170 16.8906C169.781 16.4948 169.448 16.1771 169 15.9375C168.552 15.6875 167.99 15.5625 167.312 15.5625C166.667 15.5625 166.13 15.6667 165.703 15.875C165.286 16.0729 164.974 16.3333 164.766 16.6562C164.568 16.9792 164.469 17.3333 164.469 17.7188C164.469 18 164.521 18.2552 164.625 18.4844C164.74 18.7031 164.927 18.9062 165.188 19.0938C165.448 19.2708 165.802 19.4375 166.25 19.5938C166.708 19.75 167.281 19.901 167.969 20.0469C169.26 20.3177 170.37 20.6667 171.297 21.0938C172.234 21.5104 172.953 22.0521 173.453 22.7188C173.953 23.375 174.203 24.2083 174.203 25.2188C174.203 25.9688 174.042 26.6562 173.719 27.2812C173.406 27.8958 172.948 28.4323 172.344 28.8906C171.74 29.3385 171.016 29.6875 170.172 29.9375C169.339 30.1875 168.401 30.3125 167.359 30.3125C165.828 30.3125 164.531 30.0417 163.469 29.5C162.406 28.9479 161.599 28.2448 161.047 27.3906C160.505 26.526 160.234 25.6302 160.234 24.7031H163.875C163.917 25.401 164.109 25.9583 164.453 26.375C164.807 26.7812 165.245 27.0781 165.766 27.2656C166.297 27.4427 166.844 27.5312 167.406 27.5312C168.083 27.5312 168.651 27.4427 169.109 27.2656C169.568 27.0781 169.917 26.8281 170.156 26.5156C170.396 26.1927 170.516 25.8281 170.516 25.4219Z" fill="#000022"/>
<path d="M4 3C2.93913 3 1.92172 3.42143 1.17157 4.17157C0.421427 4.92172 0 5.93913 0 7L0 23C0 24.0609 0.421427 25.0783 1.17157 25.8284C1.92172 26.5786 2.93913 27 4 27H9C9.31049 27 9.61672 27.0723 9.89443 27.2111C10.1721 27.35 10.4137 27.5516 10.6 27.8L14.4 32.866C14.5863 33.1144 14.8279 33.316 15.1056 33.4549C15.3833 33.5937 15.6895 33.666 16 33.666C16.3105 33.666 16.6167 33.5937 16.8944 33.4549C17.1721 33.316 17.4137 33.1144 17.6 32.866L21.4 27.8C21.5863 27.5516 21.8279 27.35 22.1056 27.2111C22.3833 27.0723 22.6895 27 23 27H28C29.0609 27 30.0783 26.5786 30.8284 25.8284C31.5786 25.0783 32 24.0609 32 23V7C32 5.93913 31.5786 4.92172 30.8284 4.17157C30.0783 3.42143 29.0609 3 28 3H4Z" fill="#1F64FF"/>
</svg>
